<?xml version="1.0" encoding="utf-8"?>
<!-- Generator: Adobe Illustrator 17.1.0, SVG Export Plug-In . SVG Version: 6.00 Build 0)  -->
<!DOCTYPE svg PUBLIC "-//W3C//DTD SVG 1.1//EN" "http://www.w3.org/Graphics/SVG/1.1/DTD/svg11.dtd">
<svg version="1.1" id="Layer_1" xmlns="http://www.w3.org/2000/svg" xmlns:xlink="http://www.w3.org/1999/xlink" x="0px" y="0px"
	 viewBox="0 0 18 18" enable-background="new 0 0 18 18" xml:space="preserve">
<polygon fill-rule="evenodd" clip-rule="evenodd" fill="#ffffff" points="11,8 11,10 12,10 12,11 13,11 13,12 14,12 14,13 15,13
	15,14 16,14 16,15 13,15 13,14 12,14 12,13 11,13 11,12 10,12 10,11 8,11 8,12 7,12 7,13 6,13 6,14 5,14 5,15 2,15 2,14 3,14 3,13 
	4,13 4,12 5,12 5,11 6,11 6,10 7,10 7,8 6,8 6,7 5,7 5,6 4,6 4,5 3,5 3,4 2,4 2,3 5,3 5,4 6,4 6,5 7,5 7,6 8,6 8,7 10,7 10,6 11,6 
	11,5 12,5 12,4 13,4 13,3 16,3 16,4 15,4 15,5 14,5 14,6 13,6 13,7 12,7 12,8 "/>
</svg>
